<svg xmlns="http://www.w3.org/2000/svg" viewBox="0 0 1920 1080">
  <!-- Background gradient -->
  <defs>
    <linearGradient id="bgGradient" x1="0%" y1="0%" x2="100%" y2="100%">
      <stop offset="0%" stop-color="#D97706" /> <!-- [var(--primary-main)] -->
      <stop offset="100%" stop-color="#F59E0B" /> <!-- [var(--primary-main)] -->
    </linearGradient>
    
    <!-- Patterns for texture -->
    <pattern id="gridPattern" width="40" height="40" patternUnits="userSpaceOnUse">
      <path d="M 40 0 L 0 0 0 40" fill="none" stroke="#ffffff" stroke-width="0.5" stroke-opacity="0.15"/>
    </pattern>
    
    <!-- Abstract shapes -->
    <filter id="softGlow" height="300%" width="300%" x="-100%" y="-100%">
      <feGaussianBlur stdDeviation="15" result="blur" />
      <feComposite in="SourceGraphic" in2="blur" operator="over" />
    </filter>
  </defs>
  
  <!-- Main background -->
  <rect width="100%" height="100%" fill="url(#bgGradient)" />
  <rect width="100%" height="100%" fill="url(#gridPattern)" />
  
  <!-- Trust symbol: handshake -->
  <g transform="translate(500, 600) scale(0.8)" opacity="0.8">
    <path d="M0,0 C20,10 40,0 60,-20 L100,-20 C110,-20 120,-10 120,0 L120,20 C120,30 110,40 100,40 L20,40 C10,40 0,30 0,20 Z" fill="#ffffff" />
    <path d="M180,0 C160,10 140,0 120,-20 L80,-20 C70,-20 60,-10 60,0 L60,20 C60,30 70,40 80,40 L160,40 C170,40 180,30 180,20 Z" fill="#ffffff" />
  </g>
  
  <!-- Trust symbol: shield -->
  <g transform="translate(1300, 300)" opacity="0.8">
    <path d="M0,0 L60,0 L80,20 L100,0 L160,0 L160,20 C160,80 130,140 80,180 C30,140 0,80 0,20 Z" fill="none" stroke="#000000" stroke-width="3" />
    <path d="M60,40 L60,100 L100,100 L100,40 Z" fill="none" stroke="#000000" stroke-width="3" />
    <circle cx="80" cy="70" r="20" fill="none" stroke="#000000" stroke-width="3" />
  </g>
  
  <!-- Connected people - representing community trust -->
  <g transform="translate(960, 800)" opacity="0.7">
    <!-- Person 1 -->
    <circle cx="-100" cy="0" r="20" fill="#000000" />
    <rect x="-110" y="25" width="20" height="50" rx="5" fill="#000000" />
    <line x1="-100" y1="35" x2="-130" y2="60" stroke="#000000" stroke-width="5" />
    <line x1="-100" y1="35" x2="-70" y2="60" stroke="#000000" stroke-width="5" />
    <line x1="-110" y1="75" x2="-120" y2="120" stroke="#000000" stroke-width="5" />
    <line x1="-90" y1="75" x2="-80" y2="120" stroke="#000000" stroke-width="5" />
    
    <!-- Person 2 -->
    <circle cx="0" cy="0" r="20" fill="#000000" />
    <rect x="-10" y="25" width="20" height="50" rx="5" fill="#000000" />
    <line x1="0" y1="35" x2="-30" y2="60" stroke="#000000" stroke-width="5" />
    <line x1="0" y1="35" x2="30" y2="60" stroke="#000000" stroke-width="5" />
    <line x1="-10" y1="75" x2="-20" y2="120" stroke="#000000" stroke-width="5" />
    <line x1="10" y1="75" x2="20" y2="120" stroke="#000000" stroke-width="5" />
    
    <!-- Person 3 -->
    <circle cx="100" cy="0" r="20" fill="#000000" />
    <rect x="90" y="25" width="20" height="50" rx="5" fill="#000000" />
    <line x1="100" y1="35" x2="70" y2="60" stroke="#000000" stroke-width="5" />
    <line x1="100" y1="35" x2="130" y2="60" stroke="#000000" stroke-width="5" />
    <line x1="90" y1="75" x2="80" y2="120" stroke="#000000" stroke-width="5" />
    <line x1="110" y1="75" x2="120" y2="120" stroke="#000000" stroke-width="5" />
    
    <!-- Connecting lines representing trust -->
    <line x1="-70" y1="0" x2="-30" y2="0" stroke="#000000" stroke-width="3" stroke-dasharray="5,5" />
    <line x1="30" y1="0" x2="70" y2="0" stroke="#000000" stroke-width="3" stroke-dasharray="5,5" />
  </g>
  
  <!-- Bear silhouette - representing the "Brainy Bear" logo -->
  <g transform="translate(1000, 350)" opacity="0.9">
    <path d="M0,0 C-20,-30 -50,-30 -60,-10 C-70,10 -60,30 -40,30 L-20,30 L-20,50 L20,50 L20,30 L40,30 C60,30 70,10 60,-10 C50,-30 20,-30 0,0" fill="#000000" />
    <circle cx="-30" cy="-5" r="5" fill="#ffffff" />
    <circle cx="30" cy="-5" r="5" fill="#ffffff" />
    <path d="M-10,10 Q0,20 10,10" fill="none" stroke="#ffffff" stroke-width="2" />
  </g>
  
  <!-- Books stack - education foundation -->
  <g transform="translate(200, 400)" opacity="0.8">
    <rect x="0" y="0" width="120" height="20" rx="2" fill="#ffffff" />
    <rect x="-10" y="-25" width="140" height="20" rx="2" fill="#f3f4f6" />
    <rect x="5" y="-50" width="110" height="20" rx="2" fill="#ffffff" />
    <rect x="-5" y="-75" width="130" height="20" rx="2" fill="#f3f4f6" />
  </g>
  
  <!-- Chain links - representing trust bonds -->
  <g transform="translate(1600, 600)" opacity="0.7">
    <ellipse cx="0" cy="0" rx="30" ry="20" fill="none" stroke="#000000" stroke-width="5" />
    <ellipse cx="50" cy="0" rx="30" ry="20" fill="none" stroke="#000000" stroke-width="5" transform="rotate(90)" />
    <ellipse cx="100" cy="0" rx="30" ry="20" fill="none" stroke="#000000" stroke-width="5" />
  </g>
  
  <!-- Floating particles - representing knowledge -->
  <g opacity="0.6">
    <circle cx="300" cy="400" r="4" fill="#000000" />
    <circle cx="800" cy="600" r="3" fill="#000000" />
    <circle cx="1200" cy="300" r="5" fill="#000000" />
    <circle cx="1600" cy="800" r="4" fill="#000000" />
    <circle cx="500" cy="900" r="3" fill="#000000" />
    <circle cx="1100" cy="500" r="2" fill="#000000" />
    <circle cx="1700" cy="600" r="5" fill="#000000" />
    <circle cx="400" cy="100" r="3" fill="#000000" />
    <circle cx="700" cy="300" r="4" fill="#000000" />
    <circle cx="900" cy="800" r="2" fill="#000000" />
  </g>
</svg>
